<mxfile host="app.diagrams.net" agent="Mozilla/5.0 (Windows NT 10.0; Win64; x64; rv:109.0) Gecko/20100101 Firefox/109.0" version="27.1.6">
  <diagram name="Página-1" id="oXgyd5_iziUDjb_K8_C8">
    <mxGraphModel dx="1416" dy="705" grid="1" gridSize="10" guides="1" tooltips="1" connect="1" arrows="1" fold="1" page="1" pageScale="1" pageWidth="827" pageHeight="1169" math="0" shadow="0">
      <root>
        <mxCell id="0" />
        <mxCell id="1" parent="0" />
        <mxCell id="4R3ROas3PaH2u6bu6N9y-24" value="" style="rounded=0;whiteSpace=wrap;html=1;" vertex="1" parent="1">
          <mxGeometry x="165" y="440" width="520" height="350" as="geometry" />
        </mxCell>
        <mxCell id="4R3ROas3PaH2u6bu6N9y-22" value="" style="rounded=0;whiteSpace=wrap;html=1;" vertex="1" parent="1">
          <mxGeometry x="170" y="30" width="520" height="350" as="geometry" />
        </mxCell>
        <mxCell id="4R3ROas3PaH2u6bu6N9y-1" value="&lt;div&gt;Adiministrador&lt;/div&gt;" style="shape=umlActor;verticalLabelPosition=bottom;verticalAlign=top;html=1;outlineConnect=0;" vertex="1" parent="1">
          <mxGeometry x="80" y="220" width="30" height="60" as="geometry" />
        </mxCell>
        <mxCell id="4R3ROas3PaH2u6bu6N9y-10" value="Login" style="ellipse;whiteSpace=wrap;html=1;" vertex="1" parent="1">
          <mxGeometry x="220" y="220" width="120" height="80" as="geometry" />
        </mxCell>
        <mxCell id="4R3ROas3PaH2u6bu6N9y-11" value="Cadastrar cliente" style="ellipse;whiteSpace=wrap;html=1;" vertex="1" parent="1">
          <mxGeometry x="320" y="70" width="120" height="80" as="geometry" />
        </mxCell>
        <mxCell id="4R3ROas3PaH2u6bu6N9y-12" value="Cadastrar importação" style="ellipse;whiteSpace=wrap;html=1;" vertex="1" parent="1">
          <mxGeometry x="530" y="110" width="120" height="80" as="geometry" />
        </mxCell>
        <mxCell id="4R3ROas3PaH2u6bu6N9y-13" value="&amp;lt;&amp;lt;include&amp;gt;&amp;gt;" style="endArrow=none;dashed=1;html=1;rounded=0;exitX=1;exitY=0.5;exitDx=0;exitDy=0;entryX=0;entryY=0.388;entryDx=0;entryDy=0;entryPerimeter=0;" edge="1" parent="1" source="4R3ROas3PaH2u6bu6N9y-11" target="4R3ROas3PaH2u6bu6N9y-12">
          <mxGeometry width="50" height="50" relative="1" as="geometry">
            <mxPoint x="416.6666666666665" y="540" as="sourcePoint" />
            <mxPoint x="440" y="330" as="targetPoint" />
          </mxGeometry>
        </mxCell>
        <mxCell id="4R3ROas3PaH2u6bu6N9y-14" value="" style="endArrow=none;html=1;rounded=0;entryX=0;entryY=0.5;entryDx=0;entryDy=0;" edge="1" parent="1" source="4R3ROas3PaH2u6bu6N9y-1" target="4R3ROas3PaH2u6bu6N9y-10">
          <mxGeometry width="50" height="50" relative="1" as="geometry">
            <mxPoint x="390" y="380" as="sourcePoint" />
            <mxPoint x="440" y="330" as="targetPoint" />
          </mxGeometry>
        </mxCell>
        <mxCell id="4R3ROas3PaH2u6bu6N9y-15" value="Visualizar dados" style="ellipse;whiteSpace=wrap;html=1;" vertex="1" parent="1">
          <mxGeometry x="370" y="210" width="120" height="80" as="geometry" />
        </mxCell>
        <mxCell id="4R3ROas3PaH2u6bu6N9y-16" value="" style="endArrow=none;html=1;rounded=0;entryX=0.333;entryY=0.938;entryDx=0;entryDy=0;entryPerimeter=0;" edge="1" parent="1" source="4R3ROas3PaH2u6bu6N9y-15" target="4R3ROas3PaH2u6bu6N9y-12">
          <mxGeometry width="50" height="50" relative="1" as="geometry">
            <mxPoint x="390" y="380" as="sourcePoint" />
            <mxPoint x="440" y="330" as="targetPoint" />
          </mxGeometry>
        </mxCell>
        <mxCell id="4R3ROas3PaH2u6bu6N9y-17" value="" style="endArrow=none;html=1;rounded=0;entryX=0.292;entryY=1;entryDx=0;entryDy=0;entryPerimeter=0;" edge="1" parent="1" source="4R3ROas3PaH2u6bu6N9y-15" target="4R3ROas3PaH2u6bu6N9y-11">
          <mxGeometry width="50" height="50" relative="1" as="geometry">
            <mxPoint x="390" y="380" as="sourcePoint" />
            <mxPoint x="440" y="330" as="targetPoint" />
          </mxGeometry>
        </mxCell>
        <mxCell id="4R3ROas3PaH2u6bu6N9y-18" value="" style="endArrow=none;html=1;rounded=0;exitX=1;exitY=0.5;exitDx=0;exitDy=0;" edge="1" parent="1" source="4R3ROas3PaH2u6bu6N9y-10" target="4R3ROas3PaH2u6bu6N9y-15">
          <mxGeometry width="50" height="50" relative="1" as="geometry">
            <mxPoint x="390" y="380" as="sourcePoint" />
            <mxPoint x="440" y="330" as="targetPoint" />
          </mxGeometry>
        </mxCell>
        <mxCell id="4R3ROas3PaH2u6bu6N9y-23" value="Sistema de gerenciamento, cadastrar importação" style="text;html=1;align=center;verticalAlign=middle;whiteSpace=wrap;rounded=0;" vertex="1" parent="1">
          <mxGeometry x="240" y="30" width="350" height="30" as="geometry" />
        </mxCell>
        <mxCell id="4R3ROas3PaH2u6bu6N9y-25" value="&lt;div&gt;Adiministrador&lt;/div&gt;" style="shape=umlActor;verticalLabelPosition=bottom;verticalAlign=top;html=1;outlineConnect=0;" vertex="1" parent="1">
          <mxGeometry x="75" y="630" width="30" height="60" as="geometry" />
        </mxCell>
        <mxCell id="4R3ROas3PaH2u6bu6N9y-26" value="Login" style="ellipse;whiteSpace=wrap;html=1;" vertex="1" parent="1">
          <mxGeometry x="215" y="630" width="120" height="80" as="geometry" />
        </mxCell>
        <mxCell id="4R3ROas3PaH2u6bu6N9y-27" value="Editar exportação" style="ellipse;whiteSpace=wrap;html=1;" vertex="1" parent="1">
          <mxGeometry x="315" y="480" width="120" height="80" as="geometry" />
        </mxCell>
        <mxCell id="4R3ROas3PaH2u6bu6N9y-28" value="Salvar alteração " style="ellipse;whiteSpace=wrap;html=1;" vertex="1" parent="1">
          <mxGeometry x="525" y="520" width="120" height="80" as="geometry" />
        </mxCell>
        <mxCell id="4R3ROas3PaH2u6bu6N9y-30" value="" style="endArrow=none;html=1;rounded=0;entryX=0;entryY=0.5;entryDx=0;entryDy=0;" edge="1" parent="1" source="4R3ROas3PaH2u6bu6N9y-25" target="4R3ROas3PaH2u6bu6N9y-26">
          <mxGeometry width="50" height="50" relative="1" as="geometry">
            <mxPoint x="385" y="790" as="sourcePoint" />
            <mxPoint x="435" y="740" as="targetPoint" />
          </mxGeometry>
        </mxCell>
        <mxCell id="4R3ROas3PaH2u6bu6N9y-31" value="Visualizar exportações" style="ellipse;whiteSpace=wrap;html=1;" vertex="1" parent="1">
          <mxGeometry x="365" y="620" width="120" height="80" as="geometry" />
        </mxCell>
        <mxCell id="4R3ROas3PaH2u6bu6N9y-32" value="" style="endArrow=none;html=1;rounded=0;entryX=0.333;entryY=0.938;entryDx=0;entryDy=0;entryPerimeter=0;" edge="1" parent="1" source="4R3ROas3PaH2u6bu6N9y-31" target="4R3ROas3PaH2u6bu6N9y-28">
          <mxGeometry width="50" height="50" relative="1" as="geometry">
            <mxPoint x="385" y="790" as="sourcePoint" />
            <mxPoint x="435" y="740" as="targetPoint" />
          </mxGeometry>
        </mxCell>
        <mxCell id="4R3ROas3PaH2u6bu6N9y-34" value="" style="endArrow=none;html=1;rounded=0;exitX=1;exitY=0.5;exitDx=0;exitDy=0;" edge="1" parent="1" source="4R3ROas3PaH2u6bu6N9y-26" target="4R3ROas3PaH2u6bu6N9y-31">
          <mxGeometry width="50" height="50" relative="1" as="geometry">
            <mxPoint x="385" y="790" as="sourcePoint" />
            <mxPoint x="435" y="740" as="targetPoint" />
          </mxGeometry>
        </mxCell>
        <mxCell id="4R3ROas3PaH2u6bu6N9y-35" value="Sistema de gerenciamento, mudar importação" style="text;html=1;align=center;verticalAlign=middle;whiteSpace=wrap;rounded=0;" vertex="1" parent="1">
          <mxGeometry x="235" y="440" width="350" height="30" as="geometry" />
        </mxCell>
        <mxCell id="4R3ROas3PaH2u6bu6N9y-36" value="&amp;lt;&amp;lt;include&amp;gt;&amp;gt;" style="endArrow=none;dashed=1;html=1;rounded=0;exitX=0.275;exitY=0.075;exitDx=0;exitDy=0;exitPerimeter=0;entryX=0.5;entryY=1;entryDx=0;entryDy=0;" edge="1" parent="1" source="4R3ROas3PaH2u6bu6N9y-31" target="4R3ROas3PaH2u6bu6N9y-27">
          <mxGeometry width="50" height="50" relative="1" as="geometry">
            <mxPoint x="390" y="480" as="sourcePoint" />
            <mxPoint x="440" y="430" as="targetPoint" />
          </mxGeometry>
        </mxCell>
        <mxCell id="4R3ROas3PaH2u6bu6N9y-38" value="" style="endArrow=none;html=1;rounded=0;entryX=0;entryY=0.5;entryDx=0;entryDy=0;exitX=0.992;exitY=0.625;exitDx=0;exitDy=0;exitPerimeter=0;" edge="1" parent="1" source="4R3ROas3PaH2u6bu6N9y-27" target="4R3ROas3PaH2u6bu6N9y-28">
          <mxGeometry width="50" height="50" relative="1" as="geometry">
            <mxPoint x="390" y="570" as="sourcePoint" />
            <mxPoint x="440" y="520" as="targetPoint" />
          </mxGeometry>
        </mxCell>
      </root>
    </mxGraphModel>
  </diagram>
</mxfile>
